<mxfile host="app.diagrams.net" agent="Mozilla/5.0 (Macintosh; Intel Mac OS X 10_15_7) AppleWebKit/537.36 (KHTML, like Gecko) Chrome/134.0.0.0 Safari/537.36" version="26.1.1">
  <diagram name="第 1 页" id="-zo65wGN2pRQTy7v7004">
    <mxGraphModel dx="1434" dy="761" grid="0" gridSize="10" guides="1" tooltips="1" connect="1" arrows="1" fold="1" page="1" pageScale="1" pageWidth="827" pageHeight="1169" math="0" shadow="0">
      <root>
        <mxCell id="0" />
        <mxCell id="1" parent="0" />
        <mxCell id="ZOBmhMAZ5W2HThTVy57V-1" value="n-1" style="rounded=0;whiteSpace=wrap;html=1;" vertex="1" parent="1">
          <mxGeometry x="354" y="210" width="76" height="30" as="geometry" />
        </mxCell>
        <mxCell id="ZOBmhMAZ5W2HThTVy57V-2" value="..." style="rounded=0;whiteSpace=wrap;html=1;" vertex="1" parent="1">
          <mxGeometry x="354" y="240" width="76" height="30" as="geometry" />
        </mxCell>
        <mxCell id="ZOBmhMAZ5W2HThTVy57V-3" value="1" style="rounded=0;whiteSpace=wrap;html=1;" vertex="1" parent="1">
          <mxGeometry x="354" y="270" width="76" height="30" as="geometry" />
        </mxCell>
        <mxCell id="ZOBmhMAZ5W2HThTVy57V-4" value="0" style="rounded=0;whiteSpace=wrap;html=1;" vertex="1" parent="1">
          <mxGeometry x="354" y="300" width="76" height="30" as="geometry" />
        </mxCell>
      </root>
    </mxGraphModel>
  </diagram>
</mxfile>
